<?xml version="1.0" encoding="utf-8"?>
<!-- Generator: Adobe Illustrator 15.0.0, SVG Export Plug-In . SVG Version: 6.00 Build 0)  -->
<!DOCTYPE svg PUBLIC "-//W3C//DTD SVG 1.1//EN" "http://www.w3.org/Graphics/SVG/1.1/DTD/svg11.dtd">
<svg version="1.1" id="Layer_1" xmlns="http://www.w3.org/2000/svg" xmlns:xlink="http://www.w3.org/1999/xlink" x="0px" y="0px"
	 width="421.999px" height="137.38px" viewBox="0 0 421.999 137.38" enable-background="new 0 0 421.999 137.38"
	 xml:space="preserve">
<g>
	<path fill="#E32118" d="M91.796,5.904c-0.087-0.018-9.823-0.997-43.23-0.997h-0.494c-30.362,0-41.028,0.577-43.331,1.003
		c-1.068,0.181-1.732,0.962-1.87,1.895c0,0-0.12,29.009-0.196,48.483c4.307-0.186,17.097-0.606,45.942-0.606
		c28.282,0,40.868,0.405,45.251,0.6L93.655,7.682C93.629,7.232,93.4,6.146,91.796,5.904"/>
	<g>
		<path fill="none" stroke="#E32118" stroke-width="1.8556" d="M91.796,5.904c-0.087-0.018-9.823-0.997-43.23-0.997h-0.494
			c-30.362,0-41.028,0.577-43.331,1.003c-1.068,0.181-1.732,0.962-1.87,1.895c0,0-0.12,29.009-0.196,48.483
			c4.307-0.186,17.097-0.606,45.942-0.606c28.282,0,40.868,0.405,45.251,0.6L93.655,7.682C93.629,7.232,93.4,6.146,91.796,5.904z"/>
		<path fill="#FFFFFF" d="M48.301,124.427c0,0-30.152-15.435-37.778-27.143c0,0-11-12.056-8.869-31.389v-8.161
			c0,0,39.551-0.71,46.999-0.71c0,0,40.262,0.536,46.295,0.536v10.993c0,0,2.48,17.736-9.758,29.793
			C85.19,98.346,72.6,112.715,48.301,124.427"/>
	</g>
	<path d="M152.365,24.962V3.715h-6.613v24.145c0,2.02-0.05,3.712-0.326,4.749c-0.817,3.499-3.222,5.191-7.754,5.191
		c-4.208,0-6.503-1.583-7.43-4.697c-0.33-1.041-0.442-2.729-0.442-4.751V3.715h-7.804v21.958c0,5.352,0.429,9.071,2.073,11.581
		c2.074,3.225,6.173,5.626,13.27,5.626c7.815,0,11.58-3.165,13.331-6.663C151.763,34.084,152.365,31.191,152.365,24.962"/>
	<path d="M183.375,42.277V25.402c0-1.256,0-3.5-0.44-5.467c-0.653-2.84-2.948-6.225-8.794-6.225c-5.953,0-8.357,3.439-8.357,3.439
		v-2.836h-7.43v27.964h7.649v-22.72c0,0,1.746-0.929,4.208-0.929c2.836,0,4.7,1.092,5.244,3.711
		c0.219,1.037,0.219,2.516,0.219,3.934v16.004H183.375 M197.905,6.226c0-2.348-1.748-3.935-4.369-3.935
		c-2.79,0-4.537,1.586-4.537,4.098c0,2.349,1.747,3.933,4.369,3.933C196.157,10.322,197.905,8.738,197.905,6.226 M197.305,42.277
		 M197.305,14.313h-7.652v27.964h7.652V14.313z M228.06,14.313h-6.775l-5.405,18.079c-0.38,1.363-0.979,3.445-0.979,3.445
		s-0.221-1.207-0.82-3.335l-5.356-18.188h-8.248l9.838,28.023h7.426L228.06,14.313z M254.389,28.79v-0.438
		c0-3.06-0.164-6.775-1.692-9.51c-1.747-3.056-4.645-5.078-10.157-5.078c-11.367,0-13.328,9.34-13.328,14.588
		c0,11.196,6.882,14.365,14.526,14.365c6.558,0,9.611-1.635,9.611-1.635l-1.471-4.21c0,0-2.132,1.259-5.955,1.259
		c-5.407,0-8.959-3.336-8.959-8.801V28.79H254.389z M246.798,24.908h-9.78c0-0.496,0-1.911,0.331-3.278
		c0.6-2.513,1.911-4.152,4.646-4.152c3.268,0,4.804,2.079,4.804,6.228V24.908z M276.896,14.583c-0.816-0.334-1.91-0.71-3.656-0.71
		c-4.758,0-6.722,4.151-6.722,4.151v-3.711h-7.431v27.964h7.647V20.322c0,0,1.475-0.984,4.096-0.984
		c2.518,0,4.102,1.037,4.533,1.364L276.896,14.583z"/>
	<path d="M297.692,33.977c0-3.77-1.854-5.901-5.242-7.653l-3.984-2.018c-2.241-1.146-3.279-1.692-3.279-3.441
		c0-2.13,2.02-2.732,4.314-2.732c3.492,0,6.064,1.479,6.064,1.479l1.528-4.372c0,0-3.057-1.477-8.577-1.477
		c-6.228,0-10.052,2.673-10.052,7.976c0,3.934,1.917,5.958,5.574,7.978l4.096,2.238c1.856,1.041,2.623,1.531,2.623,3.167
		c0,2.079-1.638,3.117-4.646,3.117c-4.587,0-7.099-1.528-7.099-1.528l-1.53,4.371c0,0,3.009,1.635,9.449,1.635
		C292.722,42.716,297.692,40.366,297.692,33.977 M311.028,6.226c0-2.348-1.75-3.935-4.371-3.935c-2.787,0-4.537,1.586-4.537,4.098
		c0,2.349,1.75,3.933,4.372,3.933C309.278,10.322,311.028,8.738,311.028,6.226 M310.429,42.277 M310.429,14.313h-7.65v27.964h7.65
		V14.313z M334.386,41.404l-1.256-4.203c0,0-1.42,0.761-3.279,0.761c-3.6,0-3.927-2.296-3.927-5.073V18.518h8.248v-4.154h-8.248
		V7.805h-4.975l-0.054,0.493c-0.494,2.843-2.511,5.521-5.354,6.445l-0.767,0.28v3.495h3.498v13.874c0,2.128,0.111,4.368,0.544,5.685
		c1.202,3.495,3.987,4.528,8.523,4.528C331.105,42.604,333.62,41.678,334.386,41.404"/>
	<path d="M363.31,14.313h-6.779l-5.131,18.243c-0.437,1.585-0.926,3.388-0.926,3.388s-0.168-1.15-0.871-3.5l-5.521-18.131h-8.302
		l11.196,29.333l-0.927,2.569c-0.926,2.618-2.077,3.875-4.426,3.875c-1.417,0-3.116-0.659-3.116-0.659l-0.763,4.485
		c0,0,1.637,0.71,4.758,0.71c4.527,0,7.317-1.91,9.228-7.378L363.31,14.313"/>
	<path d="M400.914,27.859c0-8.742-4.754-14.149-13.491-14.149c-10.219,0-14.094,7.263-14.094,15.08
		c0,8.739,4.806,14.145,13.544,14.145C397.084,42.935,400.914,35.667,400.914,27.859 M392.99,28.351
		c0,6.715-1.474,10.104-5.791,10.104c-4.483,0-5.952-3.768-5.952-10.216c0-6.716,1.536-10.052,5.847-10.052
		C391.566,18.188,392.99,21.902,392.99,28.351 M421.999,0.93c0,0-1.914-0.93-5.684-0.93c-5.244,0-8.083,2.075-9.285,5.95
		c-0.604,1.966-0.546,5.358-0.546,6.939v1.475h-3.496v4.154h3.496v23.759h7.539V18.518h5.734v-4.154h-5.734v-4.042
		c0-2.074,0.053-3.442,0.549-4.316c0.541-0.982,1.472-1.636,3.276-1.636c1.802,0,2.839,0.71,2.839,0.71L421.999,0.93z"/>
	<path d="M316.028,56.613c-4.596,0-7.447,2.499-7.447,6.515c0,3.751,2.792,6.176,7.114,6.176c4.587,0,7.443-2.495,7.443-6.519
		C323.139,59.037,320.346,56.613,316.028,56.613"/>
	<path d="M190.039,74.9c-18.873,0-20.907,15.573-20.907,22.269c0,17.977,12.241,21.75,22.511,21.75
		c9.181,0,14.076-1.82,15.373-2.387c-0.233-0.71-1.832-5.498-2.124-6.377c-1.199,0.542-4.403,1.751-9.094,1.751
		c-9.54,0-13.807-6.21-13.807-12.373v-1.101h26.756v-0.25c0-4.805-0.279-10.848-2.483-15.001
		C203.253,77.534,198.096,74.9,190.039,74.9 M196.393,92.596h-14.488v-0.508c0-1.086,0-3.098,0.351-5.008
		c0.837-4.495,3.106-6.681,6.938-6.681c4.913,0,7.2,2.956,7.2,9.318V92.596z"/>
	<path d="M150.699,92.694c0.494-0.134,12.07-3.471,12.07-17.202c0-11.141-9.419-14.3-12.311-15.002
		c-3.297-0.783-8.436-1.167-15.709-1.167c-5.934,0-11.177,0.297-12.699,0.39v58.532h12.271V94.62h3.57
		c0,0,16.381,23.197,16.686,23.625h14.785c-1.181-1.539-19.393-25.354-19.393-25.354L150.699,92.694 M143.425,88.519
		c-1.381,0.349-2.176,0.436-5.118,0.436l-3.987-0.098V65.998l0.428-0.071c0.04-0.01,1.086-0.178,3.722-0.178
		c7.7,0,11.436,3.736,11.436,11.432C149.906,84.346,146.559,87.737,143.425,88.519"/>
	<path d="M233.216,74.813c-8.798,0-14.288,1.787-15.774,2.331c0.264,0.763,1.976,5.68,2.277,6.537
		c1.281-0.566,4.891-1.931,10.029-1.931c2.564,0,6.137,0.377,7.572,3.603c0.498,1.068,0.729,2.585,0.729,4.785v2.714l-0.018,0.53
		l-6.253-0.279c-4.83,0-9.87,0.232-13.669,2.955c-3.202,2.303-4.695,5.564-4.695,10.256c0,7.774,5.055,12.604,13.2,12.604
		c7.813,0,10.808-4.297,10.835-4.343l0.938-1.388v5.059h11.763V92.339c0-3.566-0.084-7.263-1.063-9.808
		C247.097,77.341,241.911,74.813,233.216,74.813 M238.049,111.521l-0.257,0.146c-0.061,0.036-1.508,0.834-4.743,0.834
		c-2.72,0-7.284-0.896-7.284-6.871c0-1.093,0.186-3.802,1.849-5.368c1.528-1.438,3.492-2.084,6.365-2.084l3.625,0.087l0.445,0.011
		V111.521z"/>
	<rect x="309.514" y="75.75" width="12.692" height="42.495"/>
	<path d="M277.332,75.072c-11.794,0-19.723,9.155-19.723,22.769c0,13.404,6.265,21.078,17.184,21.078
		c8.458,0,11.385-4.772,11.414-4.823l0.951-1.61v5.76h12.27V53.731h-12.691v22.691l-0.003,1.013l-0.813-0.602
		C285.891,76.811,283.476,75.072,277.332,75.072 M286.736,81.91v28.085l-0.26,0.153c-0.084,0.046-2.101,1.162-5.419,1.162
		c-6.616,0-10.416-5.252-10.416-14.398c0-10.397,3.992-15.667,11.861-15.667c2.438,0,3.842,0.52,3.903,0.542L286.736,81.91z"/>
	<path d="M357.939,74.813c-8.973,0-12.404,5.136-12.434,5.186l-0.948,1.453V75.75H332.29v42.495h12.693V83.82l0.271-0.146
		c0.095-0.052,2.349-1.243,5.824-1.243c4.258,0,6.817,1.755,7.622,5.238c0.31,1.576,0.347,4.206,0.347,5.257v25.319h12.783V92.427
		c0-1.878,0-5.368-0.673-8.36C370.53,81.288,367.978,74.813,357.939,74.813"/>
	<g>
		<path d="M396.637,74.9c-12.456,0-18.03,7.19-18.03,14.31c0,11.087,9.495,12.643,9.892,12.698l1.889,0.283l-1.775,0.701
			c-0.258,0.108-6.362,2.586-6.362,8.838c0,4.33,3.199,5.818,3.337,5.877l1.742,0.791l-1.898,0.189
			c-0.375,0.04-9.021,0.995-9.021,8.635c0,8.84,11.138,10.157,17.773,10.157c5.298,0,9.681-0.599,13.389-1.833
			c10.817-3.61,12.43-10.952,12.43-15.013c0-9.377-7.232-10.582-13.538-10.582l-5.984,0.105l-3.413,0.069
			c-1.751,0-5.005,0-5.005-3.729c0-2.066,1.213-3.214,1.266-3.261l0.195-0.146l4.135,0.269c11.08,0,17.432-4.899,17.432-13.458
			c0-4.369-2.441-6.809-2.465-6.835l-0.898-0.875h8.706v-6.257c-0.974-0.003-16.821-0.018-16.821-0.018
			C402.385,75.474,399.851,74.9,396.637,74.9 M400.194,119.347c3.934-0.004,6.785-0.004,8.289,1.498
			c0.693,0.698,1.03,1.646,1.03,2.911c0,3.361-2.12,7.372-12.194,7.372c-4.858,0-10.423-0.727-10.423-6.356
			c0-3.857,3.386-5.327,3.53-5.385l0.098-0.04H400.194z M400.726,97.264l-0.019,0.006c-1.016,0.607-2.216,0.912-3.563,0.912
			c-4.311,0-6.691-3.185-6.691-8.973c0-2.866,0.348-6.378,3.042-8.146c1.079-0.65,2.371-1.002,3.649-1.002
			c4.312,0,6.696,3.156,6.696,8.894C403.841,91.896,403.487,95.509,400.726,97.264"/>
		<path d="M96.57,73.414L96.273,7.384c-0.116-2.044-1.769-3.688-3.867-4.007c-0.287-0.064-10.07-1.036-43.851-1.036h-0.501
			c-30.548,0-41.613,0.604-43.86,1.032c-2.005,0.334-3.832,2.108-3.93,4.16C0.239,7.745,0.021,73.484,0.021,73.484
			c-0.021,0.313-0.24,4.604,1.453,10.219c1.958,6.515,6.37,15.038,16.738,23.162c17.209,13.472,29.131,18.614,29.607,18.826
			c0.276,0.123,0.352,0.163,0.45,0.163c0.102,0,0.174-0.018,0.512-0.171c0.465-0.226,12.293-5.483,29.495-18.818
			c10.365-8.033,14.886-16.524,16.847-23.053C96.829,78.136,96.6,73.761,96.57,73.414 M2.857,7.815
			c0.142-0.936,0.803-1.717,1.87-1.891C7.03,5.492,17.695,4.915,48.054,4.915h0.501c33.407,0,42.951,0.978,43.03,0.996
			c1.608,0.242,2.026,1.519,2.058,1.973l0.219,48.405c-4.387-0.194-16.98-0.602-45.252-0.602c-28.849,0-41.639,0.423-45.945,0.61
			C2.745,36.821,2.857,7.815,2.857,7.815 M93.844,75.75c-0.109-0.033-0.201-0.083-0.305-0.123c0.104,0.036,0.195,0.086,0.305,0.115
			V75.75z M37.567,57.916h0.021c-0.069,0.103-0.153,0.195-0.233,0.287C37.428,58.111,37.505,58.018,37.567,57.916 M85.68,95.854
			c-0.447-0.907-1.34-1.475-2.345-1.475c-1.305,0-2.417,0.984-2.59,2.289c-0.029,0.167-0.098,0.297-0.171,0.297
			c-0.072,0-0.146-0.131-0.167-0.297c-0.178-1.304-1.289-2.289-2.596-2.289c-1.303,0-2.415,0.984-2.582,2.289
			c-0.036,0.167-0.109,0.297-0.178,0.297c-0.073,0-0.141-0.131-0.16-0.297c-0.185-1.304-1.296-2.289-2.604-2.289
			c-1.303,0-2.418,0.984-2.585,2.289c-0.033,0.167-0.102,0.297-0.174,0.297c-0.069,0-0.146-0.131-0.163-0.297
			c-0.179-1.304-1.293-2.289-2.6-2.289c-1.304,0-2.416,0.984-2.593,2.289c-0.029,0.182-0.106,0.297-0.168,0.297
			c-0.072,0-0.141-0.131-0.163-0.297c-0.181-1.304-1.292-2.289-2.597-2.289c-1.448,0-2.621,1.178-2.621,2.622
			c0,1.307,0.977,2.415,2.281,2.586c0.192,0.036,0.301,0.116,0.301,0.175c0,0.072-0.126,0.145-0.301,0.166
			c-1.304,0.183-2.281,1.291-2.281,2.598c0,1.303,0.977,2.418,2.281,2.588c0.192,0.034,0.301,0.113,0.301,0.171
			c0,0.076-0.126,0.142-0.301,0.167c-1.304,0.178-2.281,1.289-2.281,2.596s0.977,2.418,2.281,2.585
			c0.192,0.036,0.301,0.116,0.301,0.178c0,0.07-0.13,0.141-0.301,0.16c-1.304,0.183-2.281,1.293-2.281,2.597
			c0,1.18,0.792,2.208,1.932,2.524c-0.956,0.654-1.533,1.048-1.533,1.048c-5.883,3.596-9.729,5.405-10.756,5.869
			c-1.032-0.45-4.823-2.201-10.625-5.73c0,0-0.662-0.443-1.725-1.163c1.209-0.269,2.059-1.329,2.059-2.548
			c0-1.304-0.98-2.415-2.277-2.582c-0.174-0.034-0.309-0.105-0.309-0.175c0-0.062,0.112-0.142,0.305-0.163
			c1.3-0.182,2.281-1.293,2.281-2.6s-0.98-2.418-2.277-2.59c-0.177-0.032-0.309-0.098-0.309-0.173c0-0.058,0.112-0.137,0.305-0.163
			c1.3-0.178,2.281-1.293,2.281-2.596c0-1.307-0.98-2.415-2.277-2.59c-0.177-0.029-0.309-0.102-0.309-0.174
			c0-0.059,0.112-0.139,0.305-0.161c1.3-0.186,2.281-1.293,2.281-2.6c0-1.444-1.172-2.622-2.623-2.622
			c-1.303,0-2.418,0.984-2.585,2.289c-0.029,0.167-0.103,0.297-0.171,0.297c-0.069,0-0.142-0.116-0.164-0.297
			c-0.186-1.304-1.296-2.289-2.6-2.289c-1.308,0-2.422,0.984-2.593,2.289c-0.028,0.167-0.099,0.297-0.17,0.297
			c-0.07,0-0.142-0.131-0.164-0.297c-0.182-1.304-1.29-2.289-2.597-2.289c-1.307,0-2.418,0.984-2.592,2.289
			c-0.029,0.167-0.098,0.297-0.17,0.297c-0.073,0-0.142-0.131-0.167-0.297c-0.178-1.304-1.289-2.289-2.593-2.289
			c-1.307,0-2.422,0.984-2.589,2.289c-0.029,0.167-0.102,0.297-0.175,0.297c-0.073,0-0.141-0.131-0.16-0.297
			c-0.186-1.304-1.296-2.289-2.601-2.289c-1.005,0-1.902,0.568-2.349,1.479c-6.207-8.091-7.819-15.724-8.204-19.614l0.003-0.472
			v-0.014c0.102-0.029,0.192-0.076,0.294-0.113c0.941-0.302,1.631-1.089,1.762-2.073h0.007c0.022-0.176,0.095-0.308,0.163-0.308
			c0.073,0,0.142,0.131,0.16,0.308c0.182,1.299,1.289,2.281,2.596,2.281c1.312,0,2.422-0.982,2.589-2.281
			c0.036-0.176,0.102-0.308,0.178-0.308c0.069,0,0.142,0.131,0.16,0.308c0.185,1.299,1.293,2.281,2.6,2.281
			c1.304,0,2.418-0.982,2.586-2.281c0.029-0.176,0.102-0.308,0.17-0.308c0.079,0,0.146,0.131,0.167,0.308
			c0.181,1.299,1.296,2.281,2.6,2.281c1.308,0,2.416-0.982,2.586-2.281c0.032-0.176,0.102-0.308,0.174-0.308
			c0.072,0,0.142,0.131,0.164,0.308c0.181,1.299,1.292,2.281,2.6,2.281c1.304,0,2.418-0.982,2.589-2.281
			c0.033-0.176,0.102-0.308,0.171-0.308c0.072,0,0.145,0.131,0.167,0.308c0.178,1.299,1.29,2.281,2.597,2.281
			c1.303,0,2.419-0.982,2.585-2.281c0.033-0.197,0.113-0.308,0.174-0.308c0.077,0,0.146,0.131,0.16,0.308
			c0.186,1.299,1.3,2.281,2.6,2.281c1.449,0,2.626-1.177,2.626-2.62c0-1.307-0.981-2.423-2.284-2.591
			c-0.193-0.028-0.306-0.111-0.306-0.174c0-0.07,0.131-0.141,0.306-0.159c1.303-0.184,2.284-1.3,2.284-2.6
			c0-1.306-0.981-2.421-2.284-2.588c-0.193-0.035-0.306-0.112-0.306-0.17c0-0.077,0.131-0.146,0.306-0.17
			c1.303-0.178,2.284-1.292,2.284-2.598c0-1.306-0.981-2.413-2.284-2.593c-0.193-0.028-0.306-0.107-0.306-0.167
			c0-0.071,0.135-0.141,0.306-0.163c0.828-0.124,1.558-0.625,1.964-1.366c0,0-0.029-0.004-0.037-0.004c0-0.004,0-0.004,0-0.006
			h0.033c4.993-0.075,8.929-0.126,10.321-0.126c1.478,0,5.697,0.057,11.024,0.132h0.019l0.003,0.008
			c0.403,0.737,1.137,1.238,1.964,1.347c0.171,0.036,0.301,0.106,0.301,0.177c0,0.061-0.116,0.14-0.301,0.161
			c-1.307,0.187-2.288,1.294-2.288,2.6c0,1.305,0.98,2.42,2.288,2.584c0.175,0.038,0.301,0.106,0.301,0.184
			c0,0.059-0.116,0.135-0.301,0.156c-1.307,0.181-2.288,1.296-2.288,2.602c0,1.3,0.98,2.416,2.288,2.583
			c0.171,0.035,0.301,0.106,0.301,0.176c0,0.063-0.116,0.146-0.301,0.168c-1.307,0.173-2.288,1.29-2.288,2.597
			c0,1.442,1.173,2.62,2.622,2.62c1.307,0,2.415-0.982,2.593-2.281c0.029-0.176,0.094-0.308,0.17-0.308
			c0.062,0,0.142,0.111,0.164,0.308c0.181,1.299,1.289,2.281,2.593,2.281c1.308,0,2.426-0.982,2.589-2.281
			c0.033-0.176,0.105-0.308,0.174-0.308c0.077,0,0.142,0.131,0.164,0.308c0.182,1.299,1.296,2.281,2.601,2.281
			c1.307,0,2.418-0.982,2.588-2.281c0.029-0.176,0.099-0.308,0.171-0.308c0.073,0,0.146,0.131,0.164,0.308
			c0.181,1.299,1.293,2.281,2.604,2.281c1.301,0,2.415-0.982,2.586-2.281c0.033-0.176,0.102-0.308,0.174-0.308
			c0.069,0,0.14,0.131,0.164,0.308c0.179,1.299,1.289,2.281,2.593,2.281c1.311,0,2.422-0.982,2.589-2.281
			c0.033-0.176,0.105-0.308,0.179-0.308c0.072,0,0.137,0.131,0.16,0.308c0.181,1.299,1.297,2.281,2.6,2.281
			c1.303,0,2.423-0.982,2.59-2.281c0.029-0.176,0.098-0.308,0.17-0.308c0.073,0,0.145,0.131,0.161,0.308
			c0.156,1.09,0.962,1.96,2.026,2.208l-0.007,0.421C93.462,80.109,91.883,87.771,85.68,95.854"/>
	</g>
	<path fill="#FFE400" d="M48.247,80.351c-1.373,0-2.488,1.101-2.488,2.473c0,1.363,1.115,2.471,2.488,2.471
		c1.376,0,2.495-1.108,2.495-2.471C50.742,81.452,49.623,80.351,48.247,80.351"/>
	<path fill="none" stroke="#FFE400" stroke-width="0.7437" d="M48.247,80.351c-1.373,0-2.488,1.101-2.488,2.473
		c0,1.363,1.115,2.471,2.488,2.471c1.376,0,2.495-1.108,2.495-2.471C50.742,81.452,49.623,80.351,48.247,80.351z"/>
	<path fill="#E32118" d="M57.74,80.961c-0.495-0.265-0.883-0.313-1.305-0.164c-0.007,0.004-0.653,0.301-0.653,0.301l-0.491,0.251
		c0-0.006-1.129,0.458-1.129,0.458c-1.845,0.664-2.354,0.442-2.466,0.137l0.019-0.291c0.124-0.265,0.566-0.693,1.976-1.198
		l1.159-0.378l0.537-0.13l0.683-0.189c0.414-0.146,0.698-0.444,0.901-0.952c0.686-1.709-0.72-3.5-2.271-4.604
		c-1.739-1.229-4.107-1.917-5.276-0.869c-0.406,0.371-0.596,0.731-0.596,1.173l0.059,0.694l0.064,0.564l0.038,1.219
		c0,2.07-0.451,2.379-0.72,2.379l-0.265-0.112c-0.436-0.433-0.436-1.779-0.436-2.23c0-0.042,0.047-1.263,0.047-1.263l0.058-0.556
		L47.73,74.5c0-0.442-0.177-0.805-0.588-1.166c-1.173-1.056-3.544-0.364-5.283,0.869c-1.555,1.097-2.968,2.886-2.266,4.598
		c0.207,0.515,0.476,0.806,0.89,0.958c0.003,0,0.701,0.189,0.701,0.189l0.53,0.124c0.036,0.014,1.159,0.38,1.159,0.38
		c1.137,0.411,1.794,0.808,1.968,1.18l0.019,0.298c-0.099,0.247-0.541,0.563-2.484-0.138c-0.003,0-1.144-0.465-1.144-0.465
		c0.004,0.008-0.501-0.247-0.501-0.247l-0.635-0.29c-0.417-0.157-0.806-0.109-1.296,0.156c-1.296,0.685-1.586,2.316-0.879,4.988
		c0.531,2.067,1.903,4.119,3.479,4.064c0.556-0.015,0.926-0.178,1.209-0.516l0.399-0.56l0.316-0.479
		c0.003,0,0.744-0.958,0.744-0.958c0.356-0.422,1.264-1.504,1.874-1.562l0.253,0.079c0.02,0.019,0.167,0.262,0.167,0.262
		c0.069,0.508-0.592,1.384-0.875,1.757l-0.113,0.146c0.003-0.007-0.763,0.938-0.763,0.938c-0.003,0.006-0.392,0.42-0.392,0.42
		l-0.464,0.508c-0.269,0.363-0.342,0.749-0.236,1.297c0.305,1.55,2.614,2.422,4.746,2.488c1.895,0.058,4.097-0.524,4.576-2.307
		c0.142-0.542,0.102-0.937-0.138-1.307c-0.003-0.004-0.421-0.548-0.421-0.548l-0.363-0.436l-0.701-0.999l-0.192-0.28
		c-0.302-0.421-0.93-1.314-0.843-1.771l0.138-0.197c0.033-0.028,0.287-0.098,0.287-0.098c0.258,0.018,0.853,0.259,1.976,1.609
		c0.004,0,0.762,0.958,0.762,0.958c-0.01,0,0.302,0.464,0.302,0.464l0.399,0.574c0.287,0.338,0.662,0.501,1.217,0.516
		c1.568,0.054,2.942-1.997,3.479-4.064c0.218-0.823,0.331-1.572,0.331-2.226C59.072,82.378,58.622,81.427,57.74,80.961
		 M48.247,85.294c-1.373,0-2.488-1.108-2.488-2.471c0-1.372,1.115-2.473,2.488-2.473c1.376,0,2.495,1.101,2.495,2.473
		C50.742,84.187,49.623,85.294,48.247,85.294"/>
	<path fill="#009580" d="M56.352,79.933c-0.421,0.161-0.428,0.113-1.144,0.32c-0.41,0.108-1.184,0.389-1.544,0.512
		c-0.907,0.331-1.514,0.69-1.397,0.984c0.098,0.293,0.755,0.137,1.663-0.197c0.364-0.13,1.13-0.421,1.519-0.596
		c0.683-0.301,0.657-0.333,1.074-0.49c0.708-0.261,1.322-0.068,1.697,0.175c0.494,0.306,0.599,0.359,0.861,0.831
		c2.215-2.418,3.376-2.825,3.352-2.912c-0.026-0.076-1.653,0.181-4.801-0.403c-0.018,0.319,0.008,0.235-0.098,0.555
		C57.401,79.132,57.054,79.684,56.352,79.933"/>
	<path fill="none" stroke="#009580" stroke-width="0.7437" d="M56.352,79.933c-0.421,0.161-0.428,0.113-1.144,0.32
		c-0.41,0.108-1.184,0.389-1.544,0.512c-0.907,0.331-1.514,0.69-1.397,0.984c0.098,0.293,0.755,0.137,1.663-0.197
		c0.364-0.13,1.13-0.421,1.519-0.596c0.683-0.301,0.657-0.333,1.074-0.49c0.708-0.261,1.322-0.068,1.697,0.175
		c0.494,0.306,0.599,0.359,0.861,0.831c2.215-2.418,3.376-2.825,3.352-2.912c-0.026-0.076-1.653,0.181-4.801-0.403
		c-0.018,0.319,0.008,0.235-0.098,0.555C57.401,79.132,57.054,79.684,56.352,79.933z"/>
	<path fill="#009580" d="M48.003,74.287c0,0.44-0.043,0.429-0.098,1.173c-0.029,0.429-0.043,1.25-0.043,1.63
		c0,0.97,0.069,1.638,0.381,1.624c0.315,0.014,0.442-0.646,0.442-1.62c0-0.378-0.007-1.205-0.036-1.627
		c-0.056-0.747-0.091-0.739-0.091-1.175c0-0.755,0.392-1.267,0.741-1.54c0.367-0.286,0.399-0.338,0.843-0.443
		c-1.573-2.733-1.74-3.812-1.816-3.812c-0.069,0-0.279,1.191-1.717,3.905c0.359,0.111,0.333,0.107,0.646,0.345
		C47.608,73.02,48.003,73.536,48.003,74.287"/>
	<path fill="none" stroke="#009580" stroke-width="0.7437" d="M48.003,74.287c0,0.44-0.043,0.429-0.098,1.173
		c-0.029,0.429-0.043,1.25-0.043,1.63c0,0.97,0.069,1.638,0.381,1.624c0.315,0.014,0.442-0.646,0.442-1.62
		c0-0.378-0.007-1.205-0.036-1.627c-0.056-0.747-0.091-0.739-0.091-1.175c0-0.755,0.392-1.267,0.741-1.54
		c0.367-0.286,0.399-0.338,0.843-0.443c-1.573-2.733-1.74-3.812-1.816-3.812c-0.069,0-0.279,1.191-1.717,3.905
		c0.359,0.111,0.333,0.107,0.646,0.345C47.608,73.02,48.003,73.536,48.003,74.287z"/>
	<path fill="#009580" d="M55.524,90.495c-0.443,0.021-1.072-0.113-1.558-0.688c-0.291-0.345-0.247-0.367-0.687-0.964
		c-0.246-0.346-0.77-0.984-1.013-1.276c-0.622-0.74-1.326-1.401-1.554-1.187c-0.269,0.156,0.163,0.722,0.689,1.536
		c0.203,0.319,0.661,1.002,0.918,1.337c0.451,0.602,0.483,0.57,0.724,0.943c0.406,0.633,0.36,1.271,0.21,1.693
		c-0.145,0.406-0.126,0.464-0.392,0.785c2.919,1.292,3.827,2.186,3.907,2.128c0.072-0.044-0.479-1.275-0.912-4.391
		C55.637,90.465,55.761,90.487,55.524,90.495"/>
	<path fill="none" stroke="#009580" stroke-width="0.7437" d="M55.524,90.495c-0.443,0.021-1.072-0.113-1.558-0.688
		c-0.291-0.345-0.247-0.367-0.687-0.964c-0.246-0.346-0.77-0.984-1.013-1.276c-0.622-0.74-1.326-1.401-1.554-1.187
		c-0.269,0.156,0.163,0.722,0.689,1.536c0.203,0.319,0.661,1.002,0.918,1.337c0.451,0.602,0.483,0.57,0.724,0.943
		c0.406,0.633,0.36,1.271,0.21,1.693c-0.145,0.406-0.126,0.464-0.392,0.785c2.919,1.292,3.827,2.186,3.907,2.128
		c0.072-0.044-0.479-1.275-0.912-4.391C55.637,90.465,55.761,90.487,55.524,90.495z"/>
	<path fill="#009580" d="M44.208,89.132c0.276-0.319,0.785-0.969,1.014-1.281c0.583-0.771,0.788-1.227,0.537-1.417
		c-0.236-0.203-0.752,0.393-1.365,1.133c-0.251,0.292-0.766,0.93-1.021,1.276c-0.436,0.598-0.396,0.62-0.682,0.964
		c-0.48,0.574-1.116,0.709-1.555,0.688c-0.258-0.008-0.142,0.028-0.385-0.043c-0.324,3.185-0.843,4.298-0.774,4.351
		c0.076,0.058,0.886-0.64,3.675-1.984c-0.368-0.391-0.421-0.61-0.563-1.125c-0.113-0.429-0.124-1.075,0.33-1.678
		C43.685,89.656,43.718,89.696,44.208,89.132"/>
	<path fill="none" stroke="#009580" stroke-width="0.7437" d="M44.208,89.132c0.276-0.319,0.785-0.969,1.014-1.281
		c0.583-0.771,0.788-1.227,0.537-1.417c-0.236-0.203-0.752,0.393-1.365,1.133c-0.251,0.292-0.766,0.93-1.021,1.276
		c-0.436,0.598-0.396,0.62-0.682,0.964c-0.48,0.574-1.116,0.709-1.555,0.688c-0.258-0.008-0.142,0.028-0.385-0.043
		c-0.324,3.185-0.843,4.298-0.774,4.351c0.076,0.058,0.886-0.64,3.675-1.984c-0.368-0.391-0.421-0.61-0.563-1.125
		c-0.113-0.429-0.124-1.075,0.33-1.678C43.685,89.656,43.718,89.696,44.208,89.132z"/>
	<path fill="#009580" d="M39.997,80.453c0.42,0.146,0.396,0.189,1.082,0.491c0.388,0.17,1.154,0.464,1.51,0.591
		c0.909,0.331,1.609,0.446,1.704,0.149c0.116-0.291-0.487-0.591-1.395-0.922c-0.363-0.131-1.14-0.403-1.55-0.516
		c-0.716-0.208-0.727-0.16-1.137-0.313c-0.711-0.253-1.05-0.809-1.184-1.227c-0.135-0.389-0.146-0.479-0.138-0.861
		c-3.145,0.653-4.329,0.501-4.354,0.592c-0.029,0.088,0.872,0.53,3.086,2.807c0.24-0.388,0.266-0.359,0.676-0.617
		C38.682,80.399,39.295,80.192,39.997,80.453"/>
	<path fill="none" stroke="#009580" stroke-width="0.7437" d="M39.997,80.453c0.42,0.146,0.396,0.189,1.082,0.491
		c0.388,0.17,1.154,0.464,1.51,0.591c0.909,0.331,1.609,0.446,1.704,0.149c0.116-0.291-0.487-0.591-1.395-0.922
		c-0.363-0.131-1.14-0.403-1.55-0.516c-0.716-0.208-0.727-0.16-1.137-0.313c-0.711-0.253-1.05-0.809-1.184-1.227
		c-0.135-0.389-0.146-0.479-0.138-0.861c-3.145,0.653-4.329,0.501-4.354,0.592c-0.029,0.088,0.872,0.53,3.086,2.807
		c0.24-0.388,0.266-0.359,0.676-0.617C38.682,80.399,39.295,80.192,39.997,80.453z"/>
	<path d="M57.688,77.271c-0.144-1.462-1.172-2.857-2.52-3.836c-1.252-0.915-2.785-1.458-4.125-1.334
		c-1.002-1.533-2.651-5.826-2.73-5.826s-1.395,4.037-2.568,5.844c-1.391-0.206-3.028,0.341-4.366,1.316
		c-1.263,0.921-2.25,2.229-2.479,3.612c-1.805,0.468-6.584,0.654-6.609,0.737c-0.033,0.077,3.439,2.6,4.819,4.275
		c-0.494,1.184-0.389,2.719-0.03,4.142c0.426,1.743,1.468,3.341,2.836,3.988c-0.08,1.877-1.413,6.485-1.343,6.541
		c0.065,0.051,3.58-2.54,5.676-3.339c0.999,0.815,2.473,1.257,3.944,1.279c1.536,0.022,3.068-0.393,4.078-1.311
		c1.75,0.672,5.785,3.337,5.851,3.287c0.073-0.059-1.326-4.197-1.446-6.421c1.405-0.631,2.462-2.251,2.905-4.024
		c0.334-1.335,0.396-2.751-0.021-3.893c1.166-1.423,4.848-4.304,4.826-4.379C64.356,77.839,59.875,77.853,57.688,77.271
		 M59.08,81.473c-0.262-0.472-0.367-0.525-0.861-0.831c-0.375-0.243-0.989-0.436-1.697-0.175c-0.417,0.157-0.392,0.189-1.074,0.49
		c-0.389,0.175-1.155,0.465-1.519,0.596c-0.907,0.334-1.565,0.49-1.663,0.197c-0.116-0.294,0.49-0.654,1.397-0.984
		c0.36-0.124,1.134-0.404,1.544-0.512c0.715-0.207,0.723-0.159,1.144-0.32c0.702-0.249,1.049-0.801,1.181-1.22
		c0.105-0.32,0.08-0.236,0.098-0.555c3.148,0.584,4.775,0.327,4.801,0.403C62.457,78.648,61.295,79.055,59.08,81.473 M48.327,68.497
		c0.076,0,0.243,1.078,1.816,3.812c-0.443,0.104-0.476,0.157-0.843,0.443c-0.349,0.273-0.741,0.785-0.741,1.54
		c0,0.436,0.036,0.428,0.091,1.175c0.029,0.422,0.036,1.25,0.036,1.627c0,0.973-0.127,1.634-0.442,1.62
		c-0.313,0.014-0.381-0.653-0.381-1.624c0-0.38,0.014-1.201,0.043-1.63c0.054-0.744,0.098-0.733,0.098-1.173
		c0-0.751-0.396-1.267-0.748-1.54c-0.313-0.238-0.287-0.234-0.646-0.345C48.047,69.688,48.258,68.497,48.327,68.497 M37.621,81.244
		c-2.215-2.277-3.115-2.719-3.086-2.807c0.025-0.09,1.209,0.062,4.354-0.592c-0.008,0.382,0.003,0.472,0.138,0.861
		c0.134,0.418,0.473,0.974,1.184,1.227c0.41,0.153,0.421,0.105,1.137,0.313c0.41,0.113,1.187,0.385,1.55,0.516
		c0.908,0.331,1.511,0.631,1.395,0.922c-0.095,0.297-0.795,0.182-1.704-0.149c-0.356-0.127-1.122-0.421-1.51-0.591
		c-0.687-0.302-0.662-0.345-1.082-0.491c-0.701-0.26-1.315-0.054-1.7,0.174C37.887,80.885,37.861,80.856,37.621,81.244
		 M39.978,94.802c-0.069-0.052,0.45-1.166,0.774-4.351c0.243,0.071,0.126,0.036,0.385,0.043c0.439,0.021,1.074-0.113,1.555-0.688
		c0.286-0.345,0.246-0.367,0.682-0.964c0.255-0.346,0.77-0.984,1.021-1.276c0.613-0.74,1.129-1.336,1.365-1.133
		c0.25,0.189,0.046,0.646-0.537,1.417c-0.229,0.313-0.738,0.962-1.014,1.281c-0.49,0.564-0.523,0.524-0.788,0.882
		c-0.454,0.604-0.443,1.25-0.33,1.678c0.142,0.516,0.195,0.734,0.563,1.125C40.864,94.162,40.054,94.859,39.978,94.802
		 M56.77,94.802c-0.08,0.058-0.988-0.836-3.907-2.128c0.265-0.321,0.247-0.378,0.392-0.785c0.15-0.422,0.196-1.06-0.21-1.693
		c-0.24-0.373-0.273-0.341-0.724-0.943c-0.257-0.334-0.715-1.018-0.918-1.337c-0.527-0.814-0.958-1.38-0.689-1.536
		c0.228-0.214,0.932,0.447,1.554,1.187c0.243,0.292,0.767,0.93,1.013,1.276c0.439,0.598,0.396,0.62,0.687,0.964
		c0.486,0.574,1.115,0.709,1.558,0.688c0.236-0.008,0.113-0.03,0.334-0.084C56.291,93.527,56.842,94.757,56.77,94.802
		 M58.411,85.853c-0.527,2.006-1.801,3.851-3.138,3.807c-0.53-0.018-0.777-0.171-0.965-0.392c-0.298-0.356-0.364-0.564-0.69-1.024
		c-0.185-0.248-0.457-0.608-0.773-0.974c-0.407-0.494-1.896-2.269-2.709-1.582c-0.889,0.58,0.447,2.186,0.795,2.723
		c0.262,0.403,0.523,0.766,0.715,1.021c0.338,0.447,0.517,0.57,0.774,0.963c0.149,0.239,0.229,0.522,0.09,1.038
		c-0.399,1.496-2.309,2.104-4.237,2.048c-2.074-0.066-4.158-0.896-4.423-2.208c-0.011-0.087-0.021-0.167-0.026-0.229
		c-0.033-0.375,0.055-0.602,0.2-0.792c0.047-0.062,0.091-0.113,0.134-0.167c0.214-0.251,0.393-0.388,0.708-0.749
		c0.204-0.236,0.487-0.577,0.781-0.963c0.377-0.508,1.62-1.986,0.773-2.628c-0.817-0.691-2.201,1.03-2.611,1.524
		c-0.316,0.366-0.585,0.727-0.762,0.974c-0.331,0.46-0.403,0.667-0.701,1.024c-0.186,0.221-0.428,0.375-0.959,0.392
		c-1.336,0.044-2.614-1.801-3.141-3.807c-0.49-1.859-0.667-3.877,0.712-4.608c0.465-0.243,0.755-0.235,1.021-0.134
		c0.447,0.16,0.599,0.306,1.118,0.53c0.283,0.124,0.701,0.298,1.155,0.473c0.6,0.214,2.564,0.922,2.924-0.07
		c0.363-1.005-1.587-1.695-2.186-1.909c-0.455-0.171-0.886-0.295-1.18-0.389c-0.549-0.149-0.763-0.139-1.207-0.306
		c-0.265-0.102-0.493-0.275-0.693-0.762c-0.588-1.446,0.577-3.08,2.153-4.202c1.685-1.189,3.856-1.778,4.851-0.89
		c0.396,0.356,0.476,0.631,0.476,0.914c0,0.473-0.077,0.669-0.119,1.243c-0.015,0.305-0.044,0.756-0.044,1.236
		c0,0.638-0.022,2.727,1.042,2.727c1.067,0,1.067-2.082,1.067-2.721c0-0.486-0.018-0.937-0.047-1.242
		c-0.041-0.573-0.116-0.77-0.116-1.235c0-0.282,0.083-0.559,0.483-0.922c0.985-0.886,3.152-0.296,4.848,0.89
		c1.569,1.123,2.731,2.76,2.15,4.208c-0.196,0.48-0.432,0.662-0.701,0.755c-0.443,0.167-0.65,0.157-1.194,0.313
		c-0.298,0.087-0.73,0.218-1.185,0.389c-0.602,0.21-2.563,0.934-2.196,1.924c0.366,1,2.306,0.277,2.905,0.062
		c0.454-0.167,0.868-0.341,1.147-0.472c0.519-0.232,0.675-0.373,1.119-0.537c0.271-0.087,0.559-0.109,1.027,0.144
		C58.956,81.993,58.901,83.993,58.411,85.853"/>
	<path fill="#FFE400" d="M57.496,30.131c-0.592-0.411-1.274-1.103-1.5-1.298c-0.803-0.698-5.795-7.455-6.751-9.124
		c-0.276-0.478-0.662-0.548-0.966-0.552c-0.302,0.004-0.69,0.074-0.963,0.552c-0.962,1.669-5.956,8.426-6.754,9.124
		c-0.218,0.195-0.908,0.887-1.503,1.298c-0.439,0.309-1.783,1.271-1.859,2.217c-0.044,0.537,0.032,0.885,0.152,1.161
		c0.12,0.278,0.399,0.718,0.577,1.059c0.385-0.394,4.475-4.467,4.71-4.234c0.229,0.234-3.715,5.183-4.1,5.546
		c0,0,0.363,1.11,0.687,1.657c0.33,0.546,0.976,1.062,0.991,1.074c0.225-0.372,3.853-6.155,4.184-6.017
		c0.33,0.141-2.985,6.635-3.116,6.904c0,0,1.249,1.172,1.704,1.42c0.458,0.254,0.966,0.394,1.383,0.513
		c0.091-0.412,2.074-7.56,2.375-7.56c0.298,0-0.65,7.656-0.697,7.992c0.167,0.062,0.603,0.114,1.097,0.25
		c0.338,0.092,0.719,0.248,1.133,0.285c0.406-0.037,0.798-0.192,1.133-0.285c0.494-0.136,0.93-0.188,1.093-0.25
		c-0.04-0.335-0.991-7.992-0.693-7.992c0.301,0,2.288,7.148,2.379,7.56c0.417-0.119,0.922-0.259,1.376-0.513
		c0.461-0.249,1.71-1.42,1.71-1.42c-0.138-0.27-3.446-6.763-3.119-6.904c0.33-0.138,3.954,5.645,4.179,6.017
		c0.022-0.013,0.666-0.528,0.992-1.074c0.319-0.546,0.693-1.657,0.693-1.657c-0.389-0.363-4.333-5.313-4.1-5.546
		c0.236-0.233,4.321,3.84,4.707,4.234c0.178-0.341,0.454-0.781,0.574-1.059c0.127-0.276,0.2-0.624,0.153-1.161
		C59.283,31.403,57.943,30.44,57.496,30.131"/>
	<path fill="none" stroke="#FFE400" stroke-width="0.6842" d="M57.496,30.131c-0.592-0.411-1.274-1.103-1.5-1.298
		c-0.803-0.698-5.795-7.455-6.751-9.124c-0.276-0.478-0.662-0.548-0.966-0.552c-0.302,0.004-0.69,0.074-0.963,0.552
		c-0.962,1.669-5.956,8.426-6.754,9.124c-0.218,0.195-0.908,0.887-1.503,1.298c-0.439,0.309-1.783,1.271-1.859,2.217
		c-0.044,0.537,0.032,0.885,0.152,1.161c0.12,0.278,0.399,0.718,0.577,1.059c0.385-0.394,4.475-4.467,4.71-4.234
		c0.229,0.234-3.715,5.183-4.1,5.546c0,0,0.363,1.11,0.687,1.657c0.33,0.546,0.976,1.062,0.991,1.074
		c0.225-0.372,3.853-6.155,4.184-6.017c0.33,0.141-2.985,6.635-3.116,6.904c0,0,1.249,1.172,1.704,1.42
		c0.458,0.254,0.966,0.394,1.383,0.513c0.091-0.412,2.074-7.56,2.375-7.56c0.298,0-0.65,7.656-0.697,7.992
		c0.167,0.062,0.603,0.114,1.097,0.25c0.338,0.092,0.719,0.248,1.133,0.285c0.406-0.037,0.798-0.192,1.133-0.285
		c0.494-0.136,0.93-0.188,1.093-0.25c-0.04-0.335-0.991-7.992-0.693-7.992c0.301,0,2.288,7.148,2.379,7.56
		c0.417-0.119,0.922-0.259,1.376-0.513c0.461-0.249,1.71-1.42,1.71-1.42c-0.138-0.27-3.446-6.763-3.119-6.904
		c0.33-0.138,3.954,5.645,4.179,6.017c0.022-0.013,0.666-0.528,0.992-1.074c0.319-0.546,0.693-1.657,0.693-1.657
		c-0.389-0.363-4.333-5.313-4.1-5.546c0.236-0.233,4.321,3.84,4.707,4.234c0.178-0.341,0.454-0.781,0.574-1.059
		c0.127-0.276,0.2-0.624,0.153-1.161C59.283,31.403,57.943,30.44,57.496,30.131z"/>
	<path fill="#FFE400" d="M44.739,21.498h-4.297c-0.04,0-0.417-0.042-0.5,0.092c-0.135,0.196,0.033,0.583,0.033,0.583
		s1.441,3.775,1.452,3.8C41.768,25.513,44.321,22.052,44.739,21.498"/>
	<path fill="none" stroke="#FFE400" stroke-width="0.6842" d="M44.739,21.498h-4.297c-0.04,0-0.417-0.042-0.5,0.092
		c-0.135,0.196,0.033,0.583,0.033,0.583s1.441,3.775,1.452,3.8C41.768,25.513,44.321,22.052,44.739,21.498z"/>
	<path fill="#FFE400" d="M56.585,22.173c0,0,0.163-0.387,0.036-0.583c-0.091-0.134-0.469-0.092-0.505-0.092h-4.299
		c0.417,0.554,2.974,4.015,3.315,4.476C55.143,25.948,56.585,22.173,56.585,22.173"/>
	<path fill="none" stroke="#FFE400" stroke-width="0.6842" d="M56.585,22.173c0,0,0.163-0.387,0.036-0.583
		c-0.091-0.134-0.469-0.092-0.505-0.092h-4.299c0.417,0.554,2.974,4.015,3.315,4.476C55.143,25.948,56.585,22.173,56.585,22.173z"/>
	<path fill="#FFE400" d="M29.196,30.49c-0.592-0.415-1.282-1.105-1.503-1.299c-0.799-0.698-5.793-7.452-6.755-9.129
		c-0.269-0.476-0.658-0.546-0.958-0.55c-0.305,0.004-0.694,0.075-0.962,0.55c-0.962,1.677-5.959,8.431-6.758,9.129
		c-0.219,0.193-0.904,0.884-1.5,1.299c-0.443,0.304-1.791,1.271-1.863,2.211c-0.043,0.539,0.033,0.89,0.156,1.161
		c0.117,0.279,0.396,0.719,0.577,1.06c0.381-0.39,4.471-4.471,4.706-4.232c0.233,0.233-3.714,5.185-4.099,5.55
		c0,0,0.367,1.106,0.693,1.649c0.322,0.55,0.966,1.068,0.987,1.075c0.227-0.372,3.853-6.149,4.177-6.013
		c0.33,0.142-2.982,6.635-3.112,6.906c0,0,1.249,1.172,1.703,1.421c0.458,0.248,0.962,0.394,1.383,0.51
		c0.095-0.414,2.075-7.554,2.376-7.554c0.297,0-0.654,7.653-0.697,7.987c0.17,0.061,0.602,0.116,1.092,0.249
		c0.342,0.092,0.73,0.249,1.141,0.286c0.406-0.038,0.795-0.194,1.137-0.286c0.49-0.133,0.926-0.188,1.089-0.249
		c-0.04-0.334-0.991-7.987-0.693-7.987c0.301,0,2.281,7.14,2.375,7.554c0.417-0.117,0.927-0.262,1.384-0.51
		c0.454-0.249,1.699-1.421,1.699-1.421c-0.13-0.271-3.443-6.764-3.112-6.906c0.327-0.136,3.955,5.642,4.18,6.013
		c0.018-0.007,0.668-0.525,0.992-1.075c0.323-0.543,0.686-1.649,0.686-1.649c-0.381-0.365-4.328-5.316-4.092-5.55
		c0.232-0.239,4.321,3.843,4.703,4.232c0.182-0.341,0.454-0.781,0.581-1.06c0.116-0.271,0.192-0.622,0.152-1.161
		C30.979,31.761,29.64,30.794,29.196,30.49"/>
	<path fill="none" stroke="#FFE400" stroke-width="0.6842" d="M29.196,30.49c-0.592-0.415-1.282-1.105-1.503-1.299
		c-0.799-0.698-5.793-7.452-6.755-9.129c-0.269-0.476-0.658-0.546-0.958-0.55c-0.305,0.004-0.694,0.075-0.962,0.55
		c-0.962,1.677-5.959,8.431-6.758,9.129c-0.219,0.193-0.904,0.884-1.5,1.299c-0.443,0.304-1.791,1.271-1.863,2.211
		c-0.043,0.539,0.033,0.89,0.156,1.161c0.117,0.279,0.396,0.719,0.577,1.06c0.381-0.39,4.471-4.471,4.706-4.232
		c0.233,0.233-3.714,5.185-4.099,5.55c0,0,0.367,1.106,0.693,1.649c0.322,0.55,0.966,1.068,0.987,1.075
		c0.227-0.372,3.853-6.149,4.177-6.013c0.33,0.142-2.982,6.635-3.112,6.906c0,0,1.249,1.172,1.703,1.421
		c0.458,0.248,0.962,0.394,1.383,0.51c0.095-0.414,2.075-7.554,2.376-7.554c0.297,0-0.654,7.653-0.697,7.987
		c0.17,0.061,0.602,0.116,1.092,0.249c0.342,0.092,0.73,0.249,1.141,0.286c0.406-0.038,0.795-0.194,1.137-0.286
		c0.49-0.133,0.926-0.188,1.089-0.249c-0.04-0.334-0.991-7.987-0.693-7.987c0.301,0,2.281,7.14,2.375,7.554
		c0.417-0.117,0.927-0.262,1.384-0.51c0.454-0.249,1.699-1.421,1.699-1.421c-0.13-0.271-3.443-6.764-3.112-6.906
		c0.327-0.136,3.955,5.642,4.18,6.013c0.018-0.007,0.668-0.525,0.992-1.075c0.323-0.543,0.686-1.649,0.686-1.649
		c-0.381-0.365-4.328-5.316-4.092-5.55c0.232-0.239,4.321,3.843,4.703,4.232c0.182-0.341,0.454-0.781,0.581-1.06
		c0.116-0.271,0.192-0.622,0.152-1.161C30.979,31.761,29.64,30.794,29.196,30.49z"/>
	<path fill="#FFE400" d="M16.435,21.854h-4.292c-0.041,0-0.415-0.036-0.506,0.092c-0.13,0.201,0.036,0.584,0.036,0.584
		s1.438,3.775,1.457,3.796C13.465,25.874,16.025,22.412,16.435,21.854"/>
	<path fill="none" stroke="#FFE400" stroke-width="0.6842" d="M16.435,21.854h-4.292c-0.041,0-0.415-0.036-0.506,0.092
		c-0.13,0.201,0.036,0.584,0.036,0.584s1.438,3.775,1.457,3.796C13.465,25.874,16.025,22.412,16.435,21.854z"/>
	<path fill="#FFE400" d="M28.281,22.531c0,0,0.171-0.383,0.037-0.584c-0.087-0.128-0.465-0.092-0.501-0.092h-4.3
		c0.414,0.558,2.971,4.02,3.309,4.473C26.84,26.306,28.281,22.531,28.281,22.531"/>
	<path fill="none" stroke="#FFE400" stroke-width="0.6842" d="M28.281,22.531c0,0,0.171-0.383,0.037-0.584
		c-0.087-0.128-0.465-0.092-0.501-0.092h-4.3c0.414,0.558,2.971,4.02,3.309,4.473C26.84,26.306,28.281,22.531,28.281,22.531z"/>
	<path fill="#FFE400" d="M85.648,30.49c-0.596-0.415-1.283-1.105-1.504-1.299c-0.799-0.698-5.795-7.452-6.754-9.129
		c-0.273-0.476-0.662-0.546-0.958-0.55c-0.307,0.004-0.698,0.075-0.971,0.55c-0.955,1.677-5.952,8.431-6.748,9.129
		c-0.225,0.193-0.907,0.884-1.507,1.299c-0.442,0.304-1.786,1.271-1.858,2.211c-0.043,0.539,0.029,0.89,0.152,1.161
		c0.127,0.279,0.399,0.719,0.585,1.06c0.374-0.39,4.466-4.471,4.699-4.232c0.24,0.233-3.711,5.185-4.096,5.55
		c0,0,0.371,1.106,0.69,1.649c0.32,0.55,0.969,1.068,0.995,1.075c0.222-0.372,3.846-6.149,4.169-6.013
		c0.334,0.142-2.975,6.635-3.112,6.906c0,0,1.249,1.172,1.703,1.421c0.458,0.248,0.97,0.394,1.384,0.51
		c0.095-0.414,2.081-7.554,2.382-7.554c0.294,0-0.661,7.653-0.701,7.987c0.167,0.061,0.604,0.116,1.093,0.249
		c0.338,0.092,0.73,0.249,1.141,0.286c0.407-0.038,0.791-0.194,1.132-0.286c0.49-0.133,0.926-0.188,1.094-0.249
		c-0.044-0.334-0.992-7.987-0.693-7.987c0.297,0,2.279,7.14,2.378,7.554c0.411-0.117,0.923-0.262,1.379-0.51
		c0.454-0.249,1.699-1.421,1.699-1.421c-0.127-0.271-3.446-6.764-3.112-6.906c0.323-0.136,3.955,5.642,4.184,6.013
		c0.014-0.007,0.661-0.525,0.984-1.075c0.327-0.543,0.69-1.649,0.69-1.649c-0.385-0.365-4.335-5.316-4.096-5.55
		c0.232-0.239,4.325,3.843,4.703,4.232c0.181-0.341,0.457-0.781,0.578-1.06c0.124-0.271,0.2-0.622,0.156-1.161
		C87.433,31.761,86.094,30.794,85.648,30.49"/>
	<path fill="none" stroke="#FFE400" stroke-width="0.6842" d="M85.648,30.49c-0.596-0.415-1.283-1.105-1.504-1.299
		c-0.799-0.698-5.795-7.452-6.754-9.129c-0.273-0.476-0.662-0.546-0.958-0.55c-0.307,0.004-0.698,0.075-0.971,0.55
		c-0.955,1.677-5.952,8.431-6.748,9.129c-0.225,0.193-0.907,0.884-1.507,1.299c-0.442,0.304-1.786,1.271-1.858,2.211
		c-0.043,0.539,0.029,0.89,0.152,1.161c0.127,0.279,0.399,0.719,0.585,1.06c0.374-0.39,4.466-4.471,4.699-4.232
		c0.24,0.233-3.711,5.185-4.096,5.55c0,0,0.371,1.106,0.69,1.649c0.32,0.55,0.969,1.068,0.995,1.075
		c0.222-0.372,3.846-6.149,4.169-6.013c0.334,0.142-2.975,6.635-3.112,6.906c0,0,1.249,1.172,1.703,1.421
		c0.458,0.248,0.97,0.394,1.384,0.51c0.095-0.414,2.081-7.554,2.382-7.554c0.294,0-0.661,7.653-0.701,7.987
		c0.167,0.061,0.604,0.116,1.093,0.249c0.338,0.092,0.73,0.249,1.141,0.286c0.407-0.038,0.791-0.194,1.132-0.286
		c0.49-0.133,0.926-0.188,1.094-0.249c-0.044-0.334-0.992-7.987-0.693-7.987c0.297,0,2.279,7.14,2.378,7.554
		c0.411-0.117,0.923-0.262,1.379-0.51c0.454-0.249,1.699-1.421,1.699-1.421c-0.127-0.271-3.446-6.764-3.112-6.906
		c0.323-0.136,3.955,5.642,4.184,6.013c0.014-0.007,0.661-0.525,0.984-1.075c0.327-0.543,0.69-1.649,0.69-1.649
		c-0.385-0.365-4.335-5.316-4.096-5.55c0.232-0.239,4.325,3.843,4.703,4.232c0.181-0.341,0.457-0.781,0.578-1.06
		c0.124-0.271,0.2-0.622,0.156-1.161C87.433,31.761,86.094,30.794,85.648,30.49z"/>
	<path fill="#FFE400" d="M72.891,21.854h-4.3c-0.032,0-0.414-0.036-0.501,0.092c-0.131,0.201,0.033,0.584,0.033,0.584
		s1.441,3.775,1.452,3.796C69.92,25.874,72.472,22.412,72.891,21.854"/>
	<path fill="none" stroke="#FFE400" stroke-width="0.6842" d="M72.891,21.854h-4.3c-0.032,0-0.414-0.036-0.501,0.092
		c-0.131,0.201,0.033,0.584,0.033,0.584s1.441,3.775,1.452,3.796C69.92,25.874,72.472,22.412,72.891,21.854z"/>
	<path fill="#FFE400" d="M84.732,22.531c0,0,0.167-0.383,0.03-0.584c-0.08-0.128-0.461-0.092-0.499-0.092h-4.299
		c0.415,0.558,2.978,4.02,3.312,4.473C83.293,26.306,84.732,22.531,84.732,22.531"/>
	<path fill="none" stroke="#FFE400" stroke-width="0.6842" d="M84.732,22.531c0,0,0.167-0.383,0.03-0.584
		c-0.08-0.128-0.461-0.092-0.499-0.092h-4.299c0.415,0.558,2.978,4.02,3.312,4.473C83.293,26.306,84.732,22.531,84.732,22.531z"/>
	<path d="M30.373,29.54l-0.004-0.004c-0.384-0.252-1.206-0.929-1.459-1.179c-0.152-0.145-0.53-0.564-1.057-1.182
		c0,0-0.054-0.055-0.054-0.06c0.022,0,1.707-4.318,1.707-4.318c0.113-0.311,0.17-0.598,0.17-0.854c0-0.26-0.094-0.551-0.247-0.758
		c-0.239-0.336-0.621-0.518-1.137-0.532c0,0-5.146-0.011-5.374-0.011c-0.048-0.205-0.563-1.014-0.668-1.18
		c-0.538-1.016-1.158-1.392-2.263-1.395c-1.122,0.003-1.739,0.379-2.28,1.398c-0.109,0.163-0.617,0.972-0.671,1.176
		c-0.041,0-5.368,0.011-5.368,0.011c-0.527,0.019-0.897,0.196-1.14,0.532c-0.153,0.207-0.244,0.498-0.244,0.758
		c0,0.256,0.058,0.543,0.174,0.854c0,0,1.642,4.23,1.689,4.345c-0.011,0.004-0.04,0.032-0.04,0.032
		c-0.541,0.629-0.905,1.037-1.057,1.182c-0.258,0.25-1.075,0.926-1.463,1.179c-1.445,0.945-2.244,2.093-2.244,3.232l0.004,0.07
		c0.025,1.085,0.704,2.236,1.107,2.928l0.24,0.426c0.225,0.514,1.202,2.507,1.703,3.165c0.451,0.589,3.069,2.924,3.926,3.371
		c0.676,0.359,1.746,0.565,2.256,0.664c0.007,0,0.283,0.061,0.283,0.061c0.389,0.127,2.313,0.759,3.116,0.759
		c0.806,0,2.739-0.636,3.116-0.759c0.003,0,0.276-0.061,0.276-0.061c0.515-0.095,1.583-0.305,2.273-0.664
		c0.85-0.451,3.467-2.782,3.917-3.371c0.502-0.657,1.478-2.65,1.708-3.168l0.239-0.429c0.404-0.688,1.08-1.837,1.112-2.921v-0.067
		C32.617,31.629,31.822,30.485,30.373,29.54 M25.557,30.706c0.011,0.564,3.785,5.208,4.104,5.536
		c-0.043,0.114-0.381,1.108-0.679,1.614c-0.273,0.462-0.795,0.915-0.93,1.023c-0.225-0.366-3.82-6.154-4.216-5.988
		c-0.011,0.012-0.04,0.044-0.04,0.044C23.789,32.943,23.785,33,23.785,33c0,0.428,1.028,2.685,3.062,6.711
		c0,0,0.043,0.09,0.062,0.122c-0.17,0.156-1.252,1.161-1.667,1.384c-0.444,0.245-0.941,0.386-1.312,0.496
		c-0.105-0.389-2.041-7.547-2.415-7.547h-0.022l-0.036,0.03c-0.025,0.027-0.058,0.101-0.058,0.421c0,1.587,0.704,7.217,0.744,7.551
		c-0.051,0.017-0.341,0.083-0.341,0.083l-0.705,0.155c-0.003,0-0.301,0.092-0.301,0.092c-0.265,0.085-0.538,0.174-0.825,0.195
		c-0.279-0.021-0.545-0.11-0.806-0.192c-0.011-0.003-0.308-0.095-0.308-0.095c-0.004,0-0.709-0.155-0.709-0.155
		s-0.265-0.062-0.341-0.083c0.047-0.334,0.744-5.972,0.744-7.555c0-0.316-0.022-0.386-0.05-0.417l-0.007-0.012l-0.051-0.018
		c-0.37,0-2.31,7.158-2.416,7.547c-0.352-0.102-0.871-0.251-1.318-0.496c-0.425-0.231-1.558-1.288-1.655-1.384
		c0.018-0.032,0.08-0.171,0.08-0.171c1.387-2.75,3.043-6.138,3.043-6.663l-0.008-0.057c-0.007-0.008-0.036-0.04-0.036-0.04
		c-0.41-0.182-3.999,5.61-4.231,5.976c-0.138-0.108-0.654-0.562-0.926-1.023c-0.315-0.524-0.667-1.588-0.683-1.632
		c0.233-0.202,4.096-4.95,4.107-5.507c-0.004-0.011-0.018-0.064-0.018-0.064c-0.021-0.014-0.062-0.034-0.062-0.034
		c-0.479,0-4.354,3.878-4.681,4.207c-0.036-0.063-0.203-0.364-0.203-0.364L9.1,33.835c-0.105-0.245-0.16-0.525-0.16-0.848
		l0.015-0.287c0.047-0.617,0.7-1.391,1.836-2.176c0.451-0.314,0.963-0.795,1.268-1.085c0.011-0.002,0.243-0.219,0.243-0.219
		c0.799-0.704,5.793-7.452,6.758-9.138c0.262-0.457,0.628-0.519,0.919-0.522c0.29,0.004,0.65,0.065,0.915,0.522
		c0.97,1.693,5.963,8.438,6.766,9.141l0.229,0.213c0.305,0.289,0.824,0.773,1.282,1.088c0.653,0.451,1.765,1.34,1.833,2.176
		l0.011,0.287c0,0.322-0.051,0.603-0.159,0.848l-0.324,0.592c-0.014,0.029-0.17,0.309-0.218,0.397
		c-0.326-0.328-4.194-4.207-4.659-4.209c-0.015,0.003-0.062,0.023-0.062,0.023C25.575,30.652,25.557,30.706,25.557,30.706
		 M23.629,21.899h4.188h0.021c0.327-0.018,0.41,0.036,0.437,0.071l0.04,0.17c0,0.171-0.08,0.357-0.083,0.361
		s-1.242,3.251-1.417,3.707C26.745,26.119,23.93,22.308,23.629,21.899 M16.333,21.899c-0.083,0.106-3.123,4.219-3.192,4.309
		c-0.044-0.111-1.416-3.707-1.416-3.707c-0.011-0.023-0.084-0.198-0.084-0.361l0.047-0.17c0.019-0.035,0.102-0.089,0.425-0.071
		C12.113,21.899,16.199,21.899,16.333,21.899"/>
	<path d="M58.677,29.181l-0.004-0.004c-0.392-0.254-1.212-0.926-1.467-1.172c-0.152-0.146-0.522-0.569-1.053-1.188l-0.051-0.054
		c0.019,0,1.7-4.318,1.7-4.318c0.12-0.316,0.177-0.603,0.177-0.855c0-0.262-0.095-0.554-0.247-0.763
		c-0.24-0.333-0.621-0.513-1.137-0.532c0,0-5.146-0.007-5.371-0.007c-0.048-0.206-0.52-0.948-0.672-1.182
		c-0.545-1.012-1.158-1.391-2.266-1.395c-1.118,0.004-1.736,0.383-2.281,1.403c-0.148,0.23-0.617,0.969-0.664,1.174
		c-0.044,0-5.375,0.007-5.375,0.007c-0.52,0.019-0.897,0.194-1.14,0.532c-0.152,0.209-0.248,0.501-0.248,0.763
		c0,0.252,0.065,0.539,0.175,0.855c0.003,0,1.648,4.225,1.692,4.34c-0.011,0.004-0.037,0.032-0.037,0.032
		c-0.537,0.629-0.907,1.04-1.061,1.188c-0.254,0.246-1.075,0.917-1.46,1.172c-1.452,0.947-2.248,2.097-2.248,3.236v0.065
		c0.029,1.088,0.712,2.243,1.111,2.927l0.243,0.432c0.222,0.512,1.202,2.505,1.703,3.163c0.454,0.591,3.068,2.924,3.918,3.374
		c0.683,0.358,1.753,0.566,2.266,0.663c0.004,0,0.28,0.058,0.28,0.058c0.229,0.075,2.277,0.759,3.116,0.759
		c0.81,0,2.731-0.632,3.112-0.759c0.004-0.004,0.279-0.058,0.279-0.058c0.517-0.097,1.583-0.305,2.267-0.663
		c0.857-0.45,3.475-2.785,3.922-3.374c0.501-0.653,1.479-2.65,1.71-3.163c-0.004,0,0.236-0.436,0.236-0.436
		c0.403-0.685,1.079-1.837,1.111-2.923v-0.062C60.917,31.274,60.122,30.127,58.677,29.181 M53.861,30.348
		c0.004,0.565,3.777,5.205,4.093,5.54c-0.033,0.113-0.371,1.107-0.672,1.615c-0.272,0.45-0.777,0.9-0.93,1.019
		c-0.221-0.364-3.82-6.155-4.213-5.983c-0.011,0.007-0.04,0.042-0.04,0.042c-0.011,0.007-0.018,0.064-0.018,0.064
		c0,0.426,1.028,2.683,3.062,6.709c0,0,0.047,0.092,0.065,0.127c-0.167,0.157-1.257,1.161-1.663,1.385
		c-0.44,0.24-0.94,0.386-1.315,0.49c-0.102-0.387-2.044-7.542-2.418-7.542h-0.011l-0.043,0.026
		c-0.026,0.026-0.055,0.101-0.055,0.423c0,1.589,0.704,7.213,0.744,7.549c-0.047,0.011-0.341,0.082-0.341,0.082l-0.704,0.156
		c-0.003,0-0.301,0.093-0.301,0.093c-0.269,0.082-0.538,0.167-0.825,0.198c-0.276-0.031-0.549-0.116-0.81-0.194
		c-0.007-0.004-0.306-0.097-0.306-0.097c-0.003,0-0.708-0.156-0.708-0.156s-0.269-0.063-0.341-0.082
		c0.04-0.336,0.744-5.969,0.744-7.553c0-0.319-0.022-0.394-0.051-0.419l-0.011-0.014l-0.047-0.012c-0.374,0-2.31,7.154-2.415,7.542
		c-0.36-0.1-0.872-0.25-1.314-0.49c-0.407-0.22-1.427-1.168-1.664-1.385c0.015-0.037,0.087-0.176,0.087-0.176
		c1.384-2.747,3.033-6.136,3.033-6.663l-0.007-0.055c-0.007-0.007-0.029-0.042-0.029-0.042c-0.417-0.182-4.006,5.61-4.227,5.976
		c-0.142-0.111-0.657-0.561-0.934-1.019c-0.309-0.529-0.668-1.591-0.683-1.636c0.233-0.199,4.101-4.949,4.111-5.508
		c-0.003-0.01-0.018-0.059-0.018-0.059c-0.022-0.022-0.069-0.036-0.069-0.036c-0.476,0-4.351,3.878-4.67,4.205
		c-0.037-0.063-0.208-0.368-0.208-0.368l-0.337-0.621c-0.105-0.245-0.156-0.521-0.156-0.848l0.007-0.284
		c0.051-0.622,0.702-1.392,1.838-2.178c0.451-0.315,0.966-0.795,1.271-1.082c0.007-0.007,0.236-0.217,0.236-0.217
		c0.81-0.702,5.8-7.456,6.765-9.141c0.265-0.458,0.628-0.521,0.919-0.525c0.287,0.004,0.653,0.067,0.915,0.525
		c0.966,1.689,5.959,8.438,6.758,9.141l0.233,0.21c0.308,0.291,0.82,0.771,1.282,1.089c0.658,0.454,1.768,1.34,1.83,2.178
		l0.019,0.284c0,0.327-0.058,0.603-0.164,0.848l-0.334,0.629c0,0-0.156,0.271-0.203,0.36c-0.331-0.327-4.195-4.205-4.667-4.205
		c-0.011,0-0.058,0.014-0.058,0.014C53.879,30.299,53.861,30.348,53.861,30.348 M51.925,21.544h4.191l0.029-0.003
		c0.323-0.018,0.403,0.038,0.425,0.071c0.003,0,0.043,0.17,0.043,0.17l-0.08,0.358c-0.003,0.011-1.242,3.254-1.416,3.711
		C55.049,25.763,52.23,21.95,51.925,21.544 M44.634,21.544c-0.077,0.104-3.123,4.219-3.189,4.308
		c-0.044-0.112-1.419-3.705-1.419-3.705c-0.008-0.025-0.08-0.201-0.08-0.361l0.043-0.174c0.026-0.033,0.105-0.089,0.428-0.071
		C40.417,21.542,44.499,21.544,44.634,21.544"/>
	<path d="M86.82,29.54v-0.004c-0.385-0.256-1.206-0.929-1.467-1.179c-0.149-0.145-0.522-0.564-1.053-1.182
		c0,0-0.051-0.055-0.051-0.06c0.021,0,1.704-4.318,1.704-4.318c0.116-0.311,0.17-0.598,0.17-0.854c0-0.26-0.09-0.551-0.239-0.758
		c-0.243-0.336-0.624-0.518-1.14-0.532c0,0-5.146-0.011-5.379-0.011c-0.043-0.202-0.516-0.944-0.664-1.18
		c-0.542-1.016-1.152-1.392-2.266-1.395c-1.122,0.003-1.736,0.379-2.281,1.398c-0.148,0.232-0.617,0.972-0.665,1.176
		c-0.047,0-5.374,0.011-5.374,0.011c-0.524,0.019-0.894,0.196-1.137,0.532c-0.149,0.207-0.247,0.498-0.247,0.758
		c0,0.256,0.058,0.543,0.175,0.854c0,0,1.645,4.23,1.688,4.345c-0.007,0.004-0.033,0.032-0.033,0.032
		c-0.545,0.629-0.904,1.037-1.057,1.182c-0.261,0.25-1.083,0.922-1.467,1.179c-1.453,0.945-2.248,2.093-2.248,3.232l0.003,0.07
		c0.029,1.085,0.708,2.236,1.107,2.928l0.244,0.426c0.222,0.514,1.198,2.507,1.703,3.165c0.454,0.589,3.073,2.924,3.922,3.371
		c0.676,0.359,1.747,0.565,2.262,0.664c0.003,0,0.28,0.061,0.28,0.061c0.232,0.079,2.274,0.759,3.116,0.759
		c0.805,0,2.738-0.636,3.119-0.759l0.272-0.061c0.516-0.095,1.587-0.305,2.273-0.664c0.854-0.451,3.465-2.782,3.915-3.371
		c0.508-0.657,1.482-2.65,1.707-3.168l0.24-0.429c0.406-0.688,1.082-1.837,1.111-2.921l0.004-0.067
		C89.069,31.629,88.27,30.485,86.82,29.54 M82.009,30.706c0.011,0.564,3.784,5.208,4.1,5.536c-0.04,0.114-0.374,1.108-0.676,1.614
		c-0.272,0.458-0.777,0.899-0.93,1.023c-0.232-0.366-3.828-6.154-4.22-5.988c-0.01,0.012-0.036,0.044-0.036,0.044
		C80.241,32.943,80.229,33,80.229,33c0,0.428,1.036,2.685,3.064,6.711c0,0,0.048,0.09,0.062,0.122
		c-0.166,0.156-1.255,1.161-1.66,1.384c-0.442,0.245-0.942,0.386-1.321,0.496c-0.102-0.389-2.038-7.547-2.411-7.547h-0.019
		l-0.04,0.03c-0.026,0.027-0.052,0.101-0.052,0.421c0,1.587,0.702,7.217,0.745,7.551c-0.055,0.017-0.346,0.083-0.346,0.083
		l-0.7,0.155l-0.302,0.092c-0.268,0.085-0.541,0.174-0.823,0.195c-0.28-0.021-0.556-0.11-0.817-0.192
		c-0.004-0.003-0.306-0.095-0.306-0.095l-0.704-0.155c0,0-0.269-0.062-0.342-0.083c0.043-0.334,0.749-5.972,0.749-7.555
		c0-0.316-0.032-0.386-0.054-0.417l-0.015-0.012l-0.04-0.018c-0.381,0-2.317,7.158-2.418,7.547
		c-0.356-0.102-0.875-0.251-1.315-0.496c-0.404-0.22-1.43-1.164-1.664-1.384c0.019-0.036,0.083-0.171,0.083-0.171
		c1.388-2.75,3.04-6.138,3.04-6.663l-0.007-0.057c-0.007-0.008-0.036-0.04-0.036-0.04c-0.411-0.182-3.998,5.61-4.228,5.976
		c-0.134-0.108-0.66-0.562-0.929-1.023c-0.313-0.524-0.665-1.588-0.683-1.632c0.236-0.202,4.096-4.95,4.111-5.507
		c-0.004-0.011-0.021-0.064-0.021-0.064c-0.022-0.014-0.062-0.034-0.062-0.034c-0.483,0-4.354,3.878-4.677,4.207
		c-0.033-0.063-0.208-0.364-0.208-0.364l-0.334-0.625c-0.105-0.245-0.164-0.525-0.164-0.848l0.019-0.287
		c0.047-0.617,0.697-1.391,1.833-2.176c0.455-0.314,0.966-0.795,1.271-1.085c0.015-0.002,0.235-0.219,0.235-0.219
		c0.81-0.704,5.803-7.452,6.765-9.138c0.259-0.457,0.625-0.519,0.92-0.522c0.286,0.004,0.649,0.065,0.911,0.522
		c0.97,1.693,5.963,8.438,6.766,9.141l0.235,0.213c0.302,0.289,0.817,0.773,1.274,1.088c0.653,0.451,1.765,1.34,1.837,2.176
		l0.009,0.287c0,0.322-0.051,0.603-0.156,0.848l-0.339,0.625c0,0-0.151,0.275-0.207,0.364c-0.319-0.328-4.194-4.207-4.662-4.209
		c-0.008,0.003-0.052,0.023-0.052,0.023C82.024,30.652,82.009,30.706,82.009,30.706 M80.073,21.899h4.19h0.03
		c0.315-0.018,0.407,0.036,0.425,0.071l0.043,0.17l-0.08,0.357c0,0.008-1.239,3.255-1.42,3.71
		C83.196,26.119,80.375,22.308,80.073,21.899 M72.781,21.899c-0.076,0.106-3.119,4.219-3.192,4.309
		c-0.043-0.111-1.416-3.707-1.416-3.707c-0.007-0.023-0.08-0.198-0.08-0.361l0.043-0.17c0.021-0.035,0.108-0.089,0.429-0.071
		C68.565,21.899,72.65,21.899,72.781,21.899"/>
</g>
</svg>
